<svg xmlns="http://www.w3.org/2000/svg" width="1200" height="630" viewBox="0 0 1200 630" role="img" aria-labelledby="title desc">
  <title id="title">Politics JA Patch Social Card</title>
  <desc id="desc">Social preview artwork for the Cities: Skylines Politics Japanese Patch repository.</desc>
  <rect width="1200" height="630" fill="#24343b"/>
  <path d="M0 410 C174 358 304 438 472 382 C626 331 779 359 930 412 C1042 451 1128 434 1200 409 L1200 630 L0 630 Z" fill="#86a06d"/>
  <path d="M0 510 L1200 430 L1200 630 L0 630 Z" fill="#121b20"/>
  <path d="M108 550 L1090 480" stroke="#ecd972" stroke-width="7" stroke-dasharray="52 36"/>
  <rect x="86" y="82" width="680" height="330" rx="22" fill="#f7f2df"/>
  <rect x="86" y="82" width="680" height="82" rx="22" fill="#1f2f35"/>
  <path d="M86 142h680v44H86z" fill="#1f2f35"/>
  <text x="132" y="136" font-family="Segoe UI, Arial, sans-serif" font-size="31" font-weight="700" fill="#f7f2df">Cities: Skylines MOD Patch</text>
  <text x="132" y="240" font-family="Segoe UI, Arial, sans-serif" font-size="64" font-weight="850" fill="#213136">政治と選挙</text>
  <text x="132" y="305" font-family="Segoe UI, Arial, sans-serif" font-size="33" font-weight="700" fill="#40575a">Politics &amp; Elections 日本語化</text>
  <text x="132" y="360" font-family="Segoe UI, Arial, sans-serif" font-size="25" font-weight="600" fill="#5b6d6e">Local patcher. No redistributed game or Workshop binaries.</text>
  <g transform="translate(855 126)">
    <rect width="230" height="174" rx="22" fill="#f7f2df"/>
    <path d="M56 82h120l-13 63H69z" fill="#90a4ae"/>
    <path d="M72 58h88l16 24H56z" fill="#d9e0df"/>
    <path d="M92 32h48v44H92z" fill="#fff7c2"/>
    <path d="M100 46h32M100 60h22" stroke="#405158" stroke-width="6" stroke-linecap="round"/>
    <text x="116" y="134" text-anchor="middle" font-family="Segoe UI, Arial, sans-serif" font-size="42" font-weight="850" fill="#1f2f35">日</text>
  </g>
</svg>
